<?xml version="1.0" standalone="no"?>
<!DOCTYPE svg PUBLIC "-//W3C//DTD SVG 20010904//EN"
 "http://www.w3.org/TR/2001/REC-SVG-20010904/DTD/svg10.dtd">
<svg version="1.0" xmlns="http://www.w3.org/2000/svg"
 width="750.000000pt" height="750.000000pt" viewBox="0 0 750.000000 750.000000"
 preserveAspectRatio="xMidYMid meet">

<g transform="translate(0.000000,750.000000) scale(0.100000,-0.100000)"
fill="#0C3C78" stroke="none">
<path d="M3910 6638 c-63 -4 -180 -15 -260 -23 -80 -8 -176 -15 -215 -15 -38
0 -97 -4 -130 -10 -33 -5 -154 -14 -270 -20 -253 -14 -285 -20 -286 -58 0 -15
-1 -63 -2 -107 -2 -74 -4 -80 -27 -91 -29 -14 -110 -35 -160 -42 -19 -2 -39
-8 -45 -12 -14 -11 -130 -41 -190 -50 -51 -7 -134 -29 -192 -50 -30 -11 -33
-15 -33 -56 0 -24 4 -44 9 -44 5 0 13 -17 19 -37 6 -21 27 -83 47 -138 20 -55
42 -122 50 -150 17 -61 55 -176 90 -269 35 -97 34 -123 -10 -142 -19 -7 -45
-14 -57 -14 -13 0 -32 -7 -42 -15 -11 -8 -28 -15 -38 -15 -25 0 -89 -31 -118
-57 -14 -13 -27 -23 -31 -23 -9 0 -77 -102 -107 -161 l-27 -54 0 -280 0 -280
-23 -25 c-37 -39 -42 -62 -42 -202 l0 -130 -30 -28 c-17 -16 -69 -57 -115 -92
-47 -34 -85 -66 -85 -70 0 -4 -5 -8 -10 -8 -13 0 -50 -37 -50 -50 0 -5 -3 -10
-7 -10 -5 0 -21 -21 -38 -45 -16 -25 -33 -45 -37 -45 -5 0 -8 -6 -8 -14 0 -8
-4 -16 -8 -18 -15 -6 -110 -152 -117 -181 -4 -15 -11 -30 -16 -33 -5 -3 -9
-14 -9 -26 0 -11 -7 -41 -17 -67 -15 -43 -20 -48 -70 -65 -71 -23 -123 -75
-123 -123 0 -12 -26 -61 -58 -110 -84 -128 -108 -207 -99 -318 10 -121 62
-193 163 -228 33 -11 66 -25 74 -32 29 -24 103 -42 135 -33 17 5 58 6 92 2 80
-8 121 6 155 56 20 28 38 42 68 50 22 6 40 15 40 20 0 6 6 10 13 10 6 0 19 11
28 23 82 116 58 350 -45 448 -19 17 -26 34 -26 62 0 47 -18 83 -60 121 -25 22
-31 34 -27 55 7 32 31 86 57 126 11 17 23 37 27 45 14 31 100 138 159 198 68
68 102 79 122 40 6 -14 13 -127 17 -283 5 -205 11 -274 25 -325 39 -142 115
-238 233 -297 132 -66 134 -66 461 -69 l300 -3 26 -28 c34 -36 130 -235 130
-269 0 -7 6 -28 14 -46 23 -52 44 -163 57 -295 17 -179 -10 -395 -66 -528 -20
-45 -66 -114 -78 -115 -14 0 -107 -103 -142 -155 -53 -81 -58 -98 -59 -195 -1
-80 3 -102 21 -140 23 -47 91 -126 124 -145 133 -75 156 -80 394 -80 216 0
227 2 288 59 15 14 32 26 38 26 5 0 9 7 9 15 0 8 4 15 9 15 5 0 19 17 32 38
31 52 34 210 4 292 -40 110 -155 203 -317 256 -64 21 -69 32 -44 101 32 90 65
309 66 443 0 99 -12 207 -36 322 -8 37 -14 82 -14 101 0 18 -7 42 -15 53 -8
10 -15 30 -15 44 0 14 -7 34 -15 44 -8 11 -15 30 -15 42 0 23 -26 78 -47 102
-18 19 -16 40 5 51 21 11 148 18 484 27 236 6 238 6 270 -17 18 -13 43 -33 55
-46 12 -13 24 -23 27 -23 7 0 76 -69 76 -76 0 -3 11 -15 23 -27 82 -77 224
-352 247 -477 5 -25 13 -63 19 -85 15 -58 13 -210 -3 -274 -8 -31 -17 -67 -20
-81 -3 -14 -26 -50 -51 -80 -25 -30 -50 -60 -55 -67 -6 -7 -10 -15 -10 -19 0
-3 -6 -20 -14 -37 -25 -57 -46 -130 -46 -161 0 -41 28 -122 60 -171 29 -45
120 -96 242 -136 99 -32 316 -34 393 -4 156 60 251 143 279 243 29 104 14 251
-30 303 -8 8 -14 20 -14 24 0 17 -89 93 -137 116 -41 20 -62 24 -144 23 -54 0
-110 -6 -127 -13 -27 -11 -34 -11 -47 3 -14 14 -15 22 -4 53 7 22 12 98 12
192 0 157 -5 192 -49 321 -24 68 -75 182 -86 190 -4 3 -12 17 -18 30 -5 14
-19 39 -30 55 -11 17 -22 37 -26 45 -3 8 -10 22 -15 30 -5 8 -12 22 -16 30 -4
8 -27 37 -52 63 -96 102 -95 103 136 111 103 4 217 12 253 17 66 10 154 47
189 81 11 10 22 18 25 18 10 0 76 70 76 80 0 6 4 10 9 10 4 0 25 43 46 95 l38
96 -4 227 -4 227 35 -3 c174 -14 302 -13 353 2 30 9 65 16 76 16 12 0 21 5 21
10 0 6 5 10 11 10 18 0 103 44 112 57 4 7 15 13 23 13 18 0 181 164 189 190 4
11 11 20 16 20 5 0 9 4 9 9 0 6 13 29 29 53 16 24 39 62 51 85 23 46 35 57 65
66 110 32 193 95 256 197 9 14 18 34 22 45 3 11 17 52 31 90 14 39 26 76 26
83 0 8 6 28 13 45 8 18 22 59 32 92 9 33 23 76 30 95 56 152 66 273 27 328
-27 37 -78 62 -128 62 -36 0 -38 2 -96 80 -37 49 -76 64 -138 53 -37 -6 -100
-57 -100 -81 0 -12 -8 -13 -42 -6 -64 12 -119 10 -153 -7 -46 -22 -64 -65
-124 -294 -16 -60 -33 -121 -37 -133 -8 -26 -16 -26 -94 3 -62 23 -115 15
-154 -24 -29 -29 -31 -37 -31 -99 0 -67 1 -69 45 -116 25 -26 48 -60 52 -74
41 -155 66 -207 129 -267 56 -53 61 -77 25 -133 -89 -139 -228 -219 -366 -209
-84 5 -176 35 -210 67 l-26 25 -12 315 c-7 173 -15 398 -17 500 -6 202 -18
266 -68 360 -37 70 -113 148 -174 179 -27 13 -57 29 -68 34 -11 6 -52 12 -92
15 -107 7 -112 15 -78 134 35 123 51 186 71 283 9 44 28 123 42 175 41 157 50
216 37 233 -13 19 -93 33 -420 78 -38 5 -81 13 -95 19 -14 5 -58 12 -99 16
-41 3 -81 12 -88 19 -8 8 -15 56 -19 127 -6 86 -11 116 -23 125 -18 14 -42 14
-211 1z m142 -183 c14 -169 30 -570 31 -800 l2 -240 -26 -3 c-52 -6 -55 8 -63
245 -7 234 -23 518 -31 569 -4 23 -14 35 -35 44 -40 16 -87 65 -107 112 -9 20
-23 40 -30 42 -27 11 -662 -39 -674 -52 -3 -4 -11 -27 -18 -52 -15 -51 -48
-110 -62 -110 -5 0 -28 -12 -50 -26 -38 -24 -40 -27 -35 -62 6 -36 10 -82 41
-472 8 -102 18 -204 21 -227 5 -36 3 -43 -16 -53 -32 -17 -70 -5 -70 23 -1 54
-30 470 -39 552 -5 50 -18 181 -27 293 -14 164 -15 205 -5 212 7 4 74 11 149
14 76 4 245 16 377 27 132 11 296 24 364 29 69 6 127 13 130 16 3 2 41 3 86 2
l80 -3 7 -80z m208 -195 c44 -13 202 -36 350 -51 141 -14 162 -21 155 -51 -3
-13 -14 -57 -24 -98 -11 -41 -31 -122 -45 -180 -24 -99 -54 -210 -95 -360 -18
-64 -19 -65 -52 -65 -28 0 -34 4 -33 20 2 35 52 260 90 406 19 74 19 74 -20
97 -45 27 -66 60 -74 118 l-7 48 -145 22 c-80 12 -152 25 -161 28 -17 7 -32
54 -22 68 6 11 42 10 83 -2z m-1522 -82 c-3 -28 -9 -33 -68 -56 -36 -14 -92
-33 -125 -42 l-60 -17 -6 -54 c-9 -76 -22 -101 -67 -138 l-40 -31 25 -63 c14
-34 38 -99 54 -145 16 -46 45 -117 65 -160 20 -42 39 -92 42 -111 l5 -34 -47
5 c-26 3 -49 8 -52 11 -3 3 -23 56 -44 119 -21 62 -62 178 -90 258 -75 209
-112 330 -107 345 3 7 16 15 29 18 95 24 282 77 373 106 33 11 73 20 88 20 26
1 28 -2 25 -31z m857 -135 c43 -22 114 -111 126 -158 25 -90 9 -184 -45 -262
-45 -66 -94 -93 -174 -93 -73 0 -121 20 -168 72 -73 79 -92 146 -74 256 12 69
18 81 59 126 49 51 72 64 136 77 50 9 101 3 140 -18z m1317 -736 c66 -34 128
-91 128 -118 0 -9 7 -22 15 -29 8 -7 15 -18 15 -25 0 -6 7 -26 16 -44 19 -38
29 -215 44 -751 6 -201 15 -437 20 -525 5 -88 10 -264 12 -390 3 -198 1 -234
-13 -255 -9 -14 -19 -37 -23 -52 -3 -16 -11 -28 -16 -28 -6 0 -10 -5 -10 -10
0 -11 -39 -59 -86 -105 -41 -40 -136 -65 -251 -65 -48 0 -178 -4 -288 -10
-110 -6 -308 -15 -440 -20 -132 -5 -252 -11 -266 -14 -14 -2 -134 -7 -265 -10
-131 -4 -371 -14 -533 -22 -360 -19 -401 -14 -491 56 -69 54 -99 89 -133 160
-31 65 -31 65 -39 300 -4 129 -6 245 -3 257 6 25 49 38 95 28 l30 -7 0 -184
c0 -193 15 -310 47 -369 8 -16 33 -46 55 -66 50 -45 134 -64 246 -55 42 3 194
11 337 16 143 5 449 19 680 30 231 11 546 23 700 26 340 6 402 16 468 74 72
64 79 93 73 331 -2 112 -9 409 -14 659 -17 777 -28 927 -67 993 -14 23 -28 49
-31 58 -8 22 -81 68 -122 75 -20 4 -137 2 -261 -5 -124 -6 -336 -16 -471 -21
-395 -16 -644 -29 -825 -45 -93 -8 -280 -19 -415 -24 -230 -9 -310 -20 -310
-42 0 -5 -4 -9 -10 -9 -21 0 -78 -71 -94 -116 -18 -54 -20 -158 -7 -409 10
-184 7 -195 -60 -195 -66 0 -68 6 -71 330 -3 315 -4 314 64 403 38 51 136 126
188 144 19 7 123 17 230 23 107 5 222 12 255 15 33 4 197 10 365 15 541 17
812 31 1255 64 28 2 87 2 132 0 69 -3 93 -9 145 -37z m1467 -22 c16 -8 31 -22
35 -30 12 -32 6 -113 -13 -166 -64 -179 -101 -258 -124 -265 -34 -11 -87 6
-98 30 -12 26 -3 78 51 301 32 131 75 169 149 130z m-4067 -94 c-1 -13 -13
-36 -26 -51 -63 -76 -102 -220 -93 -349 31 -458 32 -441 -27 -441 -19 0 -39 6
-45 14 -9 10 -14 100 -18 293 -6 268 -5 281 16 341 26 77 37 96 80 147 63 73
119 96 113 46z m3847 -2 c12 -27 11 -40 -3 -98 -9 -36 -21 -86 -27 -111 -21
-85 -42 -119 -81 -137 -21 -9 -38 -20 -38 -23 0 -4 37 -10 83 -13 80 -6 123
-20 244 -80 47 -23 66 -17 40 11 -21 23 -22 61 -3 99 30 62 45 101 61 163 17
65 37 109 64 143 21 26 81 22 109 -7 36 -38 32 -63 -49 -301 -5 -16 -25 -75
-43 -130 -19 -55 -37 -117 -41 -138 -4 -20 -11 -40 -16 -43 -5 -3 -9 -14 -9
-25 0 -28 -43 -110 -72 -136 -33 -30 -90 -60 -161 -85 -34 -11 -71 -27 -82
-34 -37 -26 -107 -17 -184 23 -39 20 -71 40 -71 45 0 4 -5 8 -11 8 -17 0 -69
62 -88 105 -10 22 -26 75 -36 118 -16 65 -26 84 -62 121 -47 49 -53 78 -24
114 22 25 51 28 89 8 15 -8 47 -22 72 -31 98 -38 131 -58 182 -115 28 -32 60
-78 69 -102 l18 -43 0 36 c1 50 -30 108 -95 179 -53 57 -57 63 -55 108 0 26 8
72 16 102 8 30 15 65 15 78 0 34 50 184 68 205 10 11 30 17 61 17 42 0 47 -3
60 -31z m-1290 -48 c21 -21 46 -53 57 -72 21 -39 24 -90 43 -664 6 -198 16
-421 22 -495 16 -211 17 -686 2 -701 -7 -7 -13 -20 -13 -29 0 -21 -54 -67
-105 -90 -42 -19 -69 -20 -885 -50 -135 -5 -319 -14 -410 -20 -91 -6 -284 -15
-430 -21 -146 -6 -304 -13 -352 -16 -111 -7 -195 10 -243 50 -19 16 -35 35
-35 43 0 8 -4 14 -10 14 -5 0 -13 12 -16 28 -4 15 -12 33 -18 41 -6 8 -12 98
-14 241 -4 215 -3 229 14 238 11 5 74 12 141 16 118 7 209 28 236 55 6 6 17
11 24 11 7 0 28 20 45 45 18 25 35 45 39 45 4 0 10 14 14 30 4 17 10 30 14 30
9 0 31 98 31 143 0 72 -49 217 -72 217 -5 0 -8 4 -8 10 0 16 -64 77 -90 85
-14 4 -31 12 -39 18 -8 7 -80 13 -179 15 -139 4 -169 7 -179 21 -9 12 -12 88
-13 288 l0 273 30 48 c51 83 109 97 435 107 116 3 266 10 335 15 69 6 231 14
360 20 559 23 924 41 929 45 2 3 71 5 153 5 l148 0 39 -39z m-2876 -828 c50
-26 57 -27 217 -28 91 0 244 2 340 5 196 6 223 0 305 -66 62 -49 85 -104 85
-205 0 -93 -17 -142 -66 -195 -72 -78 -141 -93 -467 -103 -264 -8 -324 -5
-383 20 -40 18 -92 76 -105 118 -13 45 -34 421 -25 456 8 33 33 32 99 -2z
m231 -775 c3 -50 6 -136 6 -190 0 -230 26 -335 104 -423 37 -41 47 -75 23 -75
-8 0 -40 21 -73 47 -42 35 -67 65 -89 108 -51 102 -56 134 -62 388 l-5 237 44
0 45 0 7 -92z m-778 -293 c78 -26 89 -38 87 -95 -2 -45 1 -53 38 -91 67 -69
99 -153 98 -254 0 -95 -56 -177 -108 -160 -32 10 -54 70 -46 128 5 42 4 47
-14 47 -11 0 -23 -5 -27 -11 -13 -22 -7 -138 11 -175 9 -19 14 -46 11 -59 -7
-27 -56 -50 -90 -41 -52 13 -107 85 -126 164 -13 56 -26 73 -36 47 -9 -22 16
-122 33 -136 7 -6 13 -26 13 -45 0 -36 -23 -51 -62 -38 -27 8 -77 57 -96 93
-16 31 -42 123 -42 151 0 11 -5 20 -11 20 -8 0 -9 -25 -4 -86 6 -80 6 -86 -12
-82 -21 4 -58 76 -67 129 -6 39 23 190 50 254 9 22 34 64 55 93 22 29 48 72
59 96 15 36 26 47 62 60 52 19 152 15 224 -9z m2005 -1894 c76 -32 130 -71
161 -113 17 -25 18 -32 7 -39 -20 -12 -52 -2 -155 47 -51 24 -99 44 -108 44
-9 0 -46 7 -81 16 -73 19 -83 37 -32 59 53 23 133 18 208 -14z"/>
<path d="M3465 5942 c-41 -9 -64 -34 -80 -90 -14 -48 -15 -62 -4 -96 38 -114
168 -128 222 -24 52 102 -33 231 -138 210z"/>
<path d="M4342 4682 c-27 -4 -65 -53 -81 -104 -14 -42 -17 -158 -6 -233 10
-66 50 -141 84 -155 32 -13 75 0 104 30 51 56 72 238 38 337 -33 95 -76 134
-139 125z"/>
<path d="M3363 4622 c-64 -65 -83 -224 -42 -355 11 -37 25 -67 30 -67 5 0 9
-6 9 -13 0 -7 12 -20 28 -29 43 -25 92 -1 128 65 27 49 29 58 29 172 0 108 -3
125 -25 169 -45 89 -104 110 -157 58z"/>
<path d="M4218 3916 c-10 -7 -18 -17 -18 -22 0 -19 -90 -112 -124 -128 -45
-21 -189 -22 -230 -1 -15 8 -32 15 -37 15 -13 0 -76 45 -126 90 -48 42 -77 50
-87 24 -12 -30 55 -144 84 -144 6 0 10 -4 10 -8 0 -13 71 -43 140 -58 78 -17
145 -18 208 -3 51 12 132 50 132 61 0 5 4 8 10 8 16 0 76 65 90 99 11 26 11
36 0 57 -15 27 -27 29 -52 10z"/>
<path d="M2655 4151 c-93 -36 -131 -129 -87 -215 28 -57 99 -84 174 -67 46 11
72 35 93 89 15 36 16 50 6 82 -15 50 -55 93 -106 112 -36 13 -44 13 -80 -1z"/>
</g>
</svg>
